<?xml version="1.0" encoding="utf-8"?>
<!-- Generator: Adobe Illustrator 22.0.1, SVG Export Plug-In . SVG Version: 6.00 Build 0)  -->
<svg version="1.1" id="Layer_1" xmlns="http://www.w3.org/2000/svg" xmlns:xlink="http://www.w3.org/1999/xlink" x="0px" y="0px"
	 viewBox="0 0 1000 1000" style="enable-background:new 0 0 1000 1000;" xml:space="preserve">
<style type="text/css">
	.st0{fill:#E10016;stroke:#E10016;stroke-width:0.216;}
</style>
<g id="Layer1000_1_">
	<path id="path2_1_" class="st0" d="M590.6,116.5c-41.6,9.2-72.9,46.5-72.9,91.1c0,1,0.2,2.1,0.3,3.1
		c65.8,14.1,98.9,58.7,98.9,117.7c0,66.2-53.7,119.8-119.4,119.8c-65.7,0-127-55.2-127-137.1c0-100,85-193.7,206.2-196.7
		c2.2,0,5.6,0,9.2,0.2c-26.6-10.2-55.6-15.8-86-15.8c-130,0-235.5,102.8-235.5,229.5s105.4,229.5,235.5,229.5
		c130,0,235.4-102.8,235.4-229.5C735.2,233,675.5,151.2,590.6,116.5L590.6,116.5z"/>
	<g id="Layer1001_1_">
		<g>
			<path class="st0" d="M234.6,811.8c-7.5,7.3-13.4,18.9-13.9,37.3c0.5,18.4,6.4,30,13.9,37.3c17,16.7,47.6,16.7,64.6,0
				c7.5-7.3,13.4-18.9,13.9-37.3c-0.5-18.4-6.4-30-13.9-37.3C282.2,795.1,251.6,795.1,234.6,811.8z M244.9,849.1
				c-1-38.9,45-38.9,44,0C289.9,888,243.9,888,244.9,849.1z"/>
			<path class="st0" d="M313.1,849.1C313.1,849.1,313.1,849.1,313.1,849.1C313.1,849.1,313.1,849.1,313.1,849.1L313.1,849.1z"/>
		</g>
		<g>
			<path class="st0" d="M677.5,849.1C677.5,849.1,677.5,849.1,677.5,849.1C677.5,849.1,677.5,849.1,677.5,849.1L677.5,849.1z"/>
			<path class="st0" d="M599,811.8c-7.5,7.3-13.4,18.9-13.9,37.3c0.5,18.4,6.4,30,13.9,37.3c17,16.7,47.6,16.7,64.6,0
				c7.5-7.3,13.4-18.9,13.9-37.3c-0.5-18.4-6.4-30-13.9-37.3C646.6,795.1,616,795.1,599,811.8z M609.3,849.1c-1-38.9,45-38.9,44,0
				C654.3,888,608.3,888,609.3,849.1z"/>
		</g>
		<path id="path8_1_" class="st0" d="M388.1,764.9h24.6v134h-22.3v-7.7c-4.8,4.5-13.6,9.6-27.9,8.4c-25.1-2-38.3-27.7-36.3-55.8
			c2-28.2,22.8-43.9,40.1-44.9c8.8-0.5,16.5,1.7,21.8,4L388.1,764.9z M388.1,870.5v-47c-3.7-2.8-10.7-5.8-22.1-2.5
			c-18.3,5.3-23.3,49-0.5,57.6C375.1,882.2,382.6,877.4,388.1,870.5L388.1,870.5z"/>
		<path id="path10_1_" class="st0" d="M584,786.6l3.6-20.3c0,0-10.1-5.6-28.4-3.8S534,777,534,793.5v8.9h-12.9v19H534v77.5h24.6
			v-77.5h20v-19h-20v-7.6C558.7,784.1,573.1,780.3,584,786.6L584,786.6z"/>
		<path class="st0" d="M473.3,799c-22.3-1.4-38.2,11.8-38.2,11.8l8.5,17.1c0,0,6-5.7,18.4-8.6c12.4-2.9,21.1,4.6,21.1,9.2
			s0,7.4,0,7.4l0,0c-45,0.9-56,19.5-54.7,36.2c1.3,16.6,12.9,28.9,32.4,28.4c19.4-0.5,24.3-11.4,24.3-11.4v9.1h22.6
			c0,0,0-36.8,0-61.7C507.7,811.7,495.7,800.4,473.3,799z M482.9,873.4c0,0-11.2,8.6-22.8,6.1c-11.7-2.5-16-27.4,22.8-26.6V873.4z"
			/>
		<path id="path14_2_" class="st0" d="M692.9,801.3v97.6h6h18.6v-70.2c3.1-2.8,8-6.4,14.1-7.9c10.7-2.5,23.1-0.3,23.1,22.8v55.2
			h23.9v-65.6c0-15.2-8.1-33.2-31.2-34.5c-16-0.9-26.6,6.4-31.5,11v-8.4L692.9,801.3z"/>
		<path id="path16_1_" class="st0" d="M857.4,838.8h-38.6c0,0,2.7-19.6,18.5-20.2C853.2,818,857,832.3,857.4,838.8z M819.3,855.9
			h62.3c0,0,5.6-33.3-18.1-49.8c-23.8-16.5-60.4-4.6-67.3,27.7c-6.9,32.3,5.4,60.4,33.3,65.4c27.9,5,48.3-8.3,48.3-8.3l-6.3-19.6
			C871.6,871.3,823.4,898,819.3,855.9L819.3,855.9z"/>
		<path id="path18_1_" class="st0" d="M168.5,897.8h10.4l40.2-96.5h-24.9c-3.9,9.8-25.4,63.5-25.6,63.9
			c-0.2-0.4-22.3-54.7-26.1-63.9h-24.9l40.7,96.5H168.5z"/>
	</g>
	<path class="st0" d="M194.7,648.8h21.8V690c0,20.1,10,34.4,27.2,34.4c16.8,0,26.9-14.4,26.9-34.4v-41.2h21.8V692
		c0,28.7-20.9,52.5-48.8,52.5c-27.2,0-48.8-22.9-48.8-52.5V648.8z M252.9,637.2h-19.2v-17.8h19.2V637.2z M396.3,718.9h-20.4
		c-2.5,17-14.2,25.5-35.2,25.5h-2.3v-17.3h1.9c8.3,0,13.3-3.1,15-9.1c-1.7,0.6-6,0.9-13.3,0.9c-20.2,0-35.1-14.7-35.1-35.2
		c0-20.9,14.5-34.9,35.1-34.9c19.8,0,34.3,14.8,34.3,35.4v14.1h20.1V718.9z M354.5,698.2v-15c0-9.1-5.4-15-13.3-15
		c-8.2,0-12.5,6.3-12.5,14.5c0,8.8,5.3,15.4,13.3,15.4H354.5z M482.7,683.7c0,10.5-3.2,19-9.7,25.5c-6.3,6.5-15,9.7-25.6,9.7h-56.5
		v-20.7H414c-1.7-4.5-2.5-9.3-2.5-14.4c0-21.5,13.4-35.1,34.9-35.1c10.8,0,19.6,3.1,26.3,9.3C479.3,664.1,482.7,672.7,482.7,683.7z
		 M461.3,684.3c0-12.2-4.6-18.2-13.7-18.2H446c-4.3,0-7.7,1.9-10.2,5.7c-2,3.2-3.1,7.3-3.1,11.7c0,5.1,1.1,9.1,3.4,12.4
		c2.6,3.7,6.3,5.6,11.1,5.6c4.5,0,8-1.7,10.7-5.3C460.2,693,461.3,689.1,461.3,684.3z M455.4,637.1h-19.2v-17.8h19.2V637.1z
		 M520.1,718.9h-21.6v-99.6h21.6V718.9z M614.5,718.9h-77.7v-20.7h56.1c0-21.6-11.7-31.2-39.2-31.2v-18.1c13.6,0,23.2,0.9,28.9,2.9
		c21,7.4,32,22.9,32,46.2V718.9z M718.4,718.9H698c-2.5,17-14.2,25.5-35.2,25.5h-2.3v-17.3h1.9c8.3,0,13.3-3.1,15-9.1
		c-1.7,0.6-6,0.9-13.3,0.9c-20.2,0-35.1-14.7-35.1-35.2c0-20.9,14.5-34.9,35.1-34.9c19.8,0,34.3,14.8,34.3,35.4v14.1h20.1V718.9z
		 M676.7,698.2v-15c0-9.1-5.4-15-13.3-15c-8.2,0-12.5,6.3-12.5,14.5c0,8.8,5.3,15.4,13.3,15.4H676.7z M804.9,683.7
		c0,10.5-3.2,19-9.7,25.5c-6.3,6.5-15,9.7-25.6,9.7H713v-20.7h23.2c-1.7-4.5-2.5-9.3-2.5-14.4c0-21.5,13.4-35.1,34.9-35.1
		c10.8,0,19.6,3.1,26.3,9.3C801.5,664.1,804.9,672.7,804.9,683.7z M783.5,684.3c0-12.2-4.6-18.2-13.7-18.2h-1.5
		c-4.3,0-7.7,1.9-10.2,5.7c-2,3.2-3.1,7.3-3.1,11.7c0,5.1,1.1,9.1,3.4,12.4c2.6,3.7,6.3,5.6,11.1,5.6c4.5,0,8-1.7,10.7-5.3
		C782.4,693,783.5,689.1,783.5,684.3z M777.6,637.1h-19.2v-17.8h19.2V637.1z"/>
</g>
</svg>
